<svg width="3502" height="842" viewBox="0 0 3502 842" fill="none" xmlns="http://www.w3.org/2000/svg">
<path d="M3501.94 420.864V441.318C3465.08 441.531 3440.04 448.243 3426.83 461.453C3413.83 474.45 3407.34 499.273 3407.34 535.92V703.392C3407.34 726.617 3404.99 746.751 3400.3 763.797C3395.62 781.055 3388.48 795.331 3378.89 806.624C3369.3 817.916 3357.16 826.332 3342.46 831.872C3327.97 837.412 3310.82 840.182 3291 840.182V819.727C3313.37 819.727 3331.59 815.679 3345.65 807.582C3359.71 799.699 3370.05 787.128 3376.65 769.869C3383.47 752.824 3386.88 730.665 3386.88 703.392V535.92C3386.88 514.827 3388.9 497.036 3392.95 482.547C3397 467.845 3403.5 456.02 3412.45 447.071C3421.4 437.909 3433.22 431.304 3447.92 427.256C3462.63 422.994 3480.63 420.864 3501.94 420.864ZM3291 22C3310.82 22 3327.97 24.7699 3342.46 30.3097C3357.16 35.8495 3369.3 44.2656 3378.89 55.5582C3388.48 66.8509 3395.62 81.1265 3400.3 98.385C3404.99 115.43 3407.34 135.565 3407.34 158.79V326.261C3407.34 362.909 3413.83 387.838 3426.83 401.048C3440.04 414.046 3465.08 420.651 3501.94 420.864V441.318C3480.63 441.105 3462.63 438.974 3447.92 434.926C3433.22 430.665 3421.4 424.06 3412.45 415.111C3403.5 406.162 3397 394.443 3392.95 379.955C3388.9 365.253 3386.88 347.355 3386.88 326.261V158.79C3386.88 131.517 3383.47 109.358 3376.65 92.3125C3370.05 75.054 3359.71 62.3764 3345.65 54.2799C3331.59 46.1833 3313.37 42.2415 3291 42.4546V22ZM3501.94 420.864V441.318H3432.9V420.864H3501.94Z" fill="#7223D6"/>
<path d="M891.98 798V695.8H950.5V704.2H901.08V742.28H946.16V750.82H901.22V798H891.98ZM978.305 798V721H987.545V734.02C988.759 729.54 991.139 726.04 994.685 723.52C998.232 720.907 1002.71 719.6 1008.13 719.6C1016.43 719.6 1022.69 722.027 1026.89 726.88C1031.18 731.64 1033.33 738.36 1033.33 747.04V753.9H1024.09V747.04C1024.09 734.067 1018.02 727.58 1005.89 727.58C999.912 727.58 995.339 729.353 992.165 732.9C989.085 736.447 987.545 741.533 987.545 748.16V798H978.305ZM1086.89 799.26C1078.21 799.26 1071.3 796.693 1066.17 791.56C1061.04 786.333 1058.47 779.193 1058.47 770.14V748.86C1058.47 739.807 1061.04 732.713 1066.17 727.58C1071.3 722.353 1078.21 719.74 1086.89 719.74C1095.57 719.74 1102.48 722.353 1107.61 727.58C1112.74 732.713 1115.31 739.807 1115.31 748.86V770.14C1115.31 779.193 1112.74 786.333 1107.61 791.56C1102.48 796.693 1095.57 799.26 1086.89 799.26ZM1086.89 791.14C1092.96 791.14 1097.67 789.367 1101.03 785.82C1104.39 782.273 1106.07 777.233 1106.07 770.7V748.3C1106.07 741.767 1104.34 736.727 1100.89 733.18C1097.53 729.633 1092.86 727.86 1086.89 727.86C1080.92 727.86 1076.2 729.633 1072.75 733.18C1069.39 736.727 1067.71 741.767 1067.71 748.3V770.7C1067.71 777.233 1069.39 782.273 1072.75 785.82C1076.11 789.367 1080.82 791.14 1086.89 791.14ZM1143.26 798V721H1152.5V734.3C1153.62 729.727 1156 726.133 1159.64 723.52C1163.28 720.907 1167.9 719.6 1173.5 719.6C1181.15 719.6 1187.26 722.027 1191.84 726.88C1196.41 731.733 1198.7 738.267 1198.7 746.48V798H1189.46V747.88C1189.46 741.44 1187.82 736.447 1184.56 732.9C1181.29 729.26 1176.86 727.44 1171.26 727.44C1165.47 727.44 1160.9 729.307 1157.54 733.04C1154.18 736.68 1152.5 741.72 1152.5 748.16V798H1143.26ZM1262.48 798C1256.41 798 1251.65 796.367 1248.2 793.1C1244.84 789.833 1243.16 785.26 1243.16 779.38V729.4H1220.62V721H1243.16V699.3H1252.4V721H1284.32V729.4H1252.4V779.38C1252.4 782.647 1253.29 785.167 1255.06 786.94C1256.83 788.713 1259.31 789.6 1262.48 789.6H1283.62V798H1262.48ZM1396.35 798V695.8H1452.63V704.2H1405.59V740.46H1447.73V748.72H1405.59V789.6H1452.63V798H1396.35ZM1479.04 798V721H1488.28V734.3C1489.4 729.727 1491.78 726.133 1495.42 723.52C1499.06 720.907 1503.68 719.6 1509.28 719.6C1516.93 719.6 1523.04 722.027 1527.62 726.88C1532.19 731.733 1534.48 738.267 1534.48 746.48V798H1525.24V747.88C1525.24 741.44 1523.6 736.447 1520.34 732.9C1517.07 729.26 1512.64 727.44 1507.04 727.44C1501.25 727.44 1496.68 729.307 1493.32 733.04C1489.96 736.68 1488.28 741.72 1488.28 748.16V798H1479.04ZM1587.62 799.4C1579.97 799.4 1573.81 796.88 1569.14 791.84C1564.57 786.707 1562.28 779.847 1562.28 771.26V747.88C1562.28 739.293 1564.57 732.433 1569.14 727.3C1573.81 722.167 1579.97 719.6 1587.62 719.6C1593.04 719.6 1597.61 720.86 1601.34 723.38C1605.17 725.9 1607.74 729.307 1609.04 733.6L1608.9 717.36V695.8H1618.14V798H1608.9V785.4C1607.69 789.787 1605.17 793.24 1601.34 795.76C1597.61 798.187 1593.04 799.4 1587.62 799.4ZM1590.14 791.42C1596.02 791.42 1600.6 789.647 1603.86 786.1C1607.22 782.46 1608.9 777.42 1608.9 770.98V748.16C1608.9 741.72 1607.27 736.68 1604 733.04C1600.74 729.4 1596.12 727.58 1590.14 727.58C1584.36 727.58 1579.78 729.307 1576.42 732.76C1573.16 736.213 1571.52 741.253 1571.52 747.88V771.26C1571.52 777.887 1573.16 782.927 1576.42 786.38C1579.78 789.74 1584.36 791.42 1590.14 791.42ZM1730.87 798V695.8H1754.81C1761.25 695.8 1766.85 697.107 1771.61 699.72C1776.37 702.24 1780.06 705.787 1782.67 710.36C1785.38 714.933 1786.73 720.347 1786.73 726.6V767.2C1786.73 773.36 1785.38 778.773 1782.67 783.44C1780.06 788.013 1776.37 791.607 1771.61 794.22C1766.85 796.74 1761.25 798 1754.81 798H1730.87ZM1740.11 789.6H1754.81C1761.72 789.6 1767.23 787.593 1771.33 783.58C1775.44 779.567 1777.49 774.107 1777.49 767.2V726.6C1777.49 719.787 1775.44 714.373 1771.33 710.36C1767.23 706.253 1761.72 704.2 1754.81 704.2H1740.11V789.6ZM1842.54 799.4C1833.67 799.4 1826.67 796.787 1821.54 791.56C1816.5 786.333 1813.98 779.24 1813.98 770.28V748.72C1813.98 739.76 1816.55 732.667 1821.68 727.44C1826.81 722.213 1833.77 719.6 1842.54 719.6C1851.22 719.6 1858.08 722.213 1863.12 727.44C1868.25 732.573 1870.82 739.48 1870.82 748.16V761.6H1823.08V770.84C1823.08 777.093 1824.76 782.087 1828.12 785.82C1831.57 789.46 1836.38 791.28 1842.54 791.28C1847.49 791.28 1851.64 790.207 1855 788.06C1858.36 785.82 1860.37 782.74 1861.02 778.82H1870.26C1869.33 785.167 1866.34 790.207 1861.3 793.94C1856.35 797.58 1850.1 799.4 1842.54 799.4ZM1823.08 754.04H1861.72V748.16C1861.72 741.72 1860.04 736.68 1856.68 733.04C1853.32 729.307 1848.61 727.44 1842.54 727.44C1836.29 727.44 1831.48 729.26 1828.12 732.9C1824.76 736.54 1823.08 741.627 1823.08 748.16V754.04ZM1920.46 798L1894.14 721H1904.08L1922.42 776.16C1923.36 778.867 1924.15 781.62 1924.8 784.42C1925.55 787.127 1926.11 789.273 1926.48 790.86C1926.86 789.273 1927.37 787.127 1928.02 784.42C1928.77 781.62 1929.61 778.867 1930.54 776.16L1948.74 721H1958.54L1932.22 798H1920.46ZM2010.43 799.4C2001.56 799.4 1994.56 796.787 1989.43 791.56C1984.39 786.333 1981.87 779.24 1981.87 770.28V748.72C1981.87 739.76 1984.44 732.667 1989.57 727.44C1994.7 722.213 2001.66 719.6 2010.43 719.6C2019.11 719.6 2025.97 722.213 2031.01 727.44C2036.14 732.573 2038.71 739.48 2038.71 748.16V761.6H1990.97V770.84C1990.97 777.093 1992.65 782.087 1996.01 785.82C1999.46 789.46 2004.27 791.28 2010.43 791.28C2015.38 791.28 2019.53 790.207 2022.89 788.06C2026.25 785.82 2028.26 782.74 2028.91 778.82H2038.15C2037.22 785.167 2034.23 790.207 2029.19 793.94C2024.24 797.58 2017.99 799.4 2010.43 799.4ZM1990.97 754.04H2029.61V748.16C2029.61 741.72 2027.93 736.68 2024.57 733.04C2021.21 729.307 2016.5 727.44 2010.43 727.44C2004.18 727.44 1999.37 729.26 1996.01 732.9C1992.65 736.54 1990.97 741.627 1990.97 748.16V754.04ZM2104.59 798C2098.06 798 2092.97 796.227 2089.33 792.68C2085.69 789.133 2083.87 784.233 2083.87 777.98V704.2H2058.11V695.8H2093.11V777.98C2093.11 781.713 2094.09 784.607 2096.05 786.66C2098.11 788.62 2100.95 789.6 2104.59 789.6H2128.39V798H2104.59ZM2178.18 799.26C2169.5 799.26 2162.59 796.693 2157.46 791.56C2152.33 786.333 2149.76 779.193 2149.76 770.14V748.86C2149.76 739.807 2152.33 732.713 2157.46 727.58C2162.59 722.353 2169.5 719.74 2178.18 719.74C2186.86 719.74 2193.77 722.353 2198.9 727.58C2204.03 732.713 2206.6 739.807 2206.6 748.86V770.14C2206.6 779.193 2204.03 786.333 2198.9 791.56C2193.77 796.693 2186.86 799.26 2178.18 799.26ZM2178.18 791.14C2184.25 791.14 2188.96 789.367 2192.32 785.82C2195.68 782.273 2197.36 777.233 2197.36 770.7V748.3C2197.36 741.767 2195.63 736.727 2192.18 733.18C2188.82 729.633 2184.15 727.86 2178.18 727.86C2172.21 727.86 2167.49 729.633 2164.04 733.18C2160.68 736.727 2159 741.767 2159 748.3V770.7C2159 777.233 2160.68 782.273 2164.04 785.82C2167.4 789.367 2172.11 791.14 2178.18 791.14ZM2234.55 823.2V721H2243.79V733.6C2245 729.307 2247.47 725.9 2251.21 723.38C2254.94 720.86 2259.56 719.6 2265.07 719.6C2272.72 719.6 2278.83 722.167 2283.41 727.3C2288.07 732.34 2290.41 739.153 2290.41 747.74V771.12C2290.41 779.707 2288.07 786.567 2283.41 791.7C2278.83 796.833 2272.72 799.4 2265.07 799.4C2259.56 799.4 2254.89 798.14 2251.07 795.62C2247.33 793.007 2244.86 789.46 2243.65 784.98L2243.79 799.12V823.2H2234.55ZM2262.55 791.42C2268.33 791.42 2272.86 789.74 2276.13 786.38C2279.49 782.927 2281.17 777.84 2281.17 771.12V747.74C2281.17 741.113 2279.49 736.12 2276.13 732.76C2272.86 729.307 2268.33 727.58 2262.55 727.58C2256.67 727.58 2252.05 729.4 2248.69 733.04C2245.42 736.587 2243.79 741.58 2243.79 748.02V770.84C2243.79 777.28 2245.42 782.32 2248.69 785.96C2252.05 789.6 2256.67 791.42 2262.55 791.42ZM2346.21 799.4C2337.34 799.4 2330.34 796.787 2325.21 791.56C2320.17 786.333 2317.65 779.24 2317.65 770.28V748.72C2317.65 739.76 2320.22 732.667 2325.35 727.44C2330.48 722.213 2337.44 719.6 2346.21 719.6C2354.89 719.6 2361.75 722.213 2366.79 727.44C2371.92 732.573 2374.49 739.48 2374.49 748.16V761.6H2326.75V770.84C2326.75 777.093 2328.43 782.087 2331.79 785.82C2335.24 789.46 2340.05 791.28 2346.21 791.28C2351.16 791.28 2355.31 790.207 2358.67 788.06C2362.03 785.82 2364.04 782.74 2364.69 778.82H2373.93C2373 785.167 2370.01 790.207 2364.97 793.94C2360.02 797.58 2353.77 799.4 2346.21 799.4ZM2326.75 754.04H2365.39V748.16C2365.39 741.72 2363.71 736.68 2360.35 733.04C2356.99 729.307 2352.28 727.44 2346.21 727.44C2339.96 727.44 2335.15 729.26 2331.79 732.9C2328.43 736.54 2326.75 741.627 2326.75 748.16V754.04ZM2405.38 798V721H2414.62V734.02C2415.83 729.54 2418.21 726.04 2421.76 723.52C2425.3 720.907 2429.78 719.6 2435.2 719.6C2443.5 719.6 2449.76 722.027 2453.96 726.88C2458.25 731.64 2460.4 738.36 2460.4 747.04V753.9H2451.16V747.04C2451.16 734.067 2445.09 727.58 2432.96 727.58C2426.98 727.58 2422.41 729.353 2419.24 732.9C2416.16 736.447 2414.62 741.533 2414.62 748.16V798H2405.38Z" fill="#E7E7E7"/>
<path d="M2569.64 790L2550.63 776.816L2569.64 763.632L2570.85 765.36L2554.21 776.816L2570.85 788.272L2569.64 790ZM2575.6 797.872L2595.5 751.664L2598 752.624L2578.1 798.832L2575.6 797.872ZM2622.97 776.816L2603.96 790L2602.74 788.272L2619.38 776.816L2602.74 765.36L2603.96 763.632L2622.97 776.816Z" fill="#5F1BB5"/>
<path d="M0 442.318V421.864C36.8608 421.651 61.7898 415.046 74.7869 402.048C87.9972 388.838 94.6023 363.909 94.6023 327.261V159.79C94.6023 136.565 96.946 116.43 101.634 99.385C106.321 82.1265 113.459 67.8509 123.047 56.5582C132.635 45.2656 144.673 36.8495 159.162 31.3097C173.864 25.7699 191.122 23 210.938 23V43.4546C188.778 43.2415 170.561 47.1833 156.286 55.2799C142.223 63.3764 131.783 76.054 124.964 93.3125C118.359 110.358 115.057 132.517 115.057 159.79V327.261C115.057 348.355 113.033 366.253 108.984 380.955C104.936 395.443 98.4375 407.269 89.4886 416.43C80.5398 425.379 68.7145 431.984 54.0128 436.246C39.3111 440.294 21.3068 442.318 0 442.318ZM210.938 841.182C191.122 841.182 173.864 838.412 159.162 832.872C144.673 827.332 132.635 818.916 123.047 807.624C113.459 796.331 106.321 782.055 101.634 764.797C96.946 747.751 94.6023 727.617 94.6023 704.392V536.92C94.6023 500.273 87.9972 475.45 74.7869 462.453C61.7898 449.243 36.8608 442.531 0 442.318V421.864C21.3068 422.077 39.3111 424.314 54.0128 428.575C68.7145 432.624 80.5398 439.122 89.4886 448.071C98.4375 457.02 104.936 468.845 108.984 483.547C113.033 498.036 115.057 515.827 115.057 536.92V704.392C115.057 731.665 118.359 753.824 124.964 770.869C131.783 788.128 142.223 800.699 156.286 808.582C170.561 816.679 188.778 820.727 210.938 820.727V841.182ZM0 442.318V421.864H69.0341V442.318H0Z" fill="#7223D6"/>
<path d="M491 616C479.8 616 470.733 612.667 463.8 606C457.133 599.067 453.8 590.133 453.8 579.2C453.8 568.267 457.133 559.333 463.8 552.4C470.733 545.467 479.8 542 491 542C502.2 542 511.133 545.467 517.8 552.4C524.733 559.333 528.2 568.267 528.2 579.2C528.2 590.133 524.733 599.067 517.8 606C511.133 612.667 502.2 616 491 616Z" fill="#7223D6"/>
<path d="M657.044 612V174H791.444C833.444 174 866.844 184.2 891.644 204.6C916.844 225 929.444 252.4 929.444 286.8C929.444 310.8 922.444 331.4 908.444 348.6C894.844 365.8 877.044 376.2 855.044 379.8V381C871.444 383 886.044 389 898.844 399C911.644 408.6 921.644 421.2 928.844 436.8C936.044 452 939.644 468.8 939.644 487.2C939.644 512.4 933.844 534.4 922.244 553.2C910.644 572 894.244 586.6 873.044 597C851.844 607 826.844 612 798.044 612H657.044ZM730.244 354.6H790.244C809.844 354.6 825.444 349.4 837.044 339C848.644 328.2 854.444 313.6 854.444 295.2C854.444 277.2 848.644 263 837.044 252.6C825.844 241.8 810.244 236.4 790.244 236.4H730.244V354.6ZM730.244 549.6H793.844C815.844 549.6 833.044 543.8 845.444 532.2C858.244 520.2 864.644 504 864.644 483.6C864.644 463.2 858.244 446.8 845.444 434.4C833.044 421.6 815.844 415.2 793.844 415.2H730.244V549.6ZM991.609 612L1102.01 174H1198.61L1309.61 612H1232.81L1208.81 505.8H1092.41L1068.41 612H991.609ZM1106.21 444.6H1195.01L1168.61 327C1164.21 307.4 1160.41 289.8 1157.21 274.2C1154.01 258.2 1151.81 246.6 1150.61 239.4C1149.41 246.6 1147.21 258.2 1144.01 274.2C1140.81 289.8 1137.01 307.2 1132.61 326.4L1106.21 444.6ZM1376.58 612V174H1514.58C1543.78 174 1568.98 179.4 1590.18 190.2C1611.78 201 1628.58 216.2 1640.58 235.8C1652.58 255 1658.58 277.8 1658.58 304.2C1658.58 333.4 1651.38 359 1636.98 381C1622.58 402.6 1603.18 418 1578.78 427.2L1664.58 612H1582.38L1505.58 438H1450.98V612H1376.58ZM1450.98 372H1514.58C1535.78 372 1552.38 366.2 1564.38 354.6C1576.38 343 1582.38 327 1582.38 306.6C1582.38 286.2 1576.18 270 1563.78 258C1551.78 246 1535.38 240 1514.58 240H1450.98V372ZM1736.34 612V174H1870.74C1912.74 174 1946.14 184.2 1970.94 204.6C1996.14 225 2008.74 252.4 2008.74 286.8C2008.74 310.8 2001.74 331.4 1987.74 348.6C1974.14 365.8 1956.34 376.2 1934.34 379.8V381C1950.74 383 1965.34 389 1978.14 399C1990.94 408.6 2000.94 421.2 2008.14 436.8C2015.34 452 2018.94 468.8 2018.94 487.2C2018.94 512.4 2013.14 534.4 2001.54 553.2C1989.94 572 1973.54 586.6 1952.34 597C1931.14 607 1906.14 612 1877.34 612H1736.34ZM1809.54 354.6H1869.54C1889.14 354.6 1904.74 349.4 1916.34 339C1927.94 328.2 1933.74 313.6 1933.74 295.2C1933.74 277.2 1927.94 263 1916.34 252.6C1905.14 241.8 1889.54 236.4 1869.54 236.4H1809.54V354.6ZM1809.54 549.6H1873.14C1895.14 549.6 1912.34 543.8 1924.74 532.2C1937.54 520.2 1943.94 504 1943.94 483.6C1943.94 463.2 1937.54 446.8 1924.74 434.4C1912.34 421.6 1895.14 415.2 1873.14 415.2H1809.54V549.6ZM2229.91 618C2187.91 618 2154.51 606 2129.71 582C2105.31 558 2093.11 524.8 2093.11 482.4V303.6C2093.11 261.2 2105.31 228 2129.71 204C2154.51 180 2187.91 168 2229.91 168C2271.91 168 2305.11 180 2329.51 204C2354.31 228 2366.71 261 2366.71 303V482.4C2366.71 524.8 2354.31 558 2329.51 582C2305.11 606 2271.91 618 2229.91 618ZM2229.91 552C2250.31 552 2265.71 546.6 2276.11 535.8C2286.51 524.6 2291.71 508.8 2291.71 488.4V297.6C2291.71 277.2 2286.51 261.6 2276.11 250.8C2265.71 239.6 2250.31 234 2229.91 234C2209.51 234 2194.11 239.6 2183.71 250.8C2173.31 261.6 2168.11 277.2 2168.11 297.6V488.4C2168.11 508.8 2173.31 524.6 2183.71 535.8C2194.11 546.6 2209.51 552 2229.91 552ZM2591.47 618C2561.87 618 2535.87 612.8 2513.47 602.4C2491.47 592 2474.27 577.2 2461.87 558C2449.87 538.4 2443.87 515.2 2443.87 488.4H2517.67C2517.67 508 2524.27 523.6 2537.47 535.2C2551.07 546.8 2569.07 552.6 2591.47 552.6C2613.07 552.6 2630.07 547 2642.47 535.8C2655.27 524.2 2661.67 508.8 2661.67 489.6C2661.67 475.2 2657.47 462.6 2649.07 451.8C2641.07 440.6 2629.47 433 2614.27 429L2555.47 414C2523.87 406 2498.87 391 2480.47 369C2462.07 347 2452.87 320.8 2452.87 290.4C2452.87 253.2 2465.07 223.6 2489.47 201.6C2513.87 179.2 2546.47 168 2587.27 168C2614.87 168 2638.87 173 2659.27 183C2680.07 193 2696.07 207.2 2707.27 225.6C2718.47 243.6 2724.07 264.8 2724.07 289.2H2650.87C2650.87 272.4 2645.07 258.8 2633.47 248.4C2621.87 238 2606.47 232.8 2587.27 232.8C2568.47 232.8 2553.47 238 2542.27 248.4C2531.47 258.4 2526.07 271.6 2526.07 288C2526.07 301.6 2529.87 312.8 2537.47 321.6C2545.47 330.4 2556.47 336.8 2570.47 340.8L2631.07 355.8C2663.47 363.8 2688.87 379.8 2707.27 403.8C2726.07 427.8 2735.47 456.4 2735.47 489.6C2735.47 515.6 2729.47 538.2 2717.47 557.4C2705.87 576.6 2689.27 591.6 2667.67 602.4C2646.07 612.8 2620.67 618 2591.47 618ZM2790.44 612L2900.84 174H2997.44L3108.44 612H3031.64L3007.64 505.8H2891.24L2867.24 612H2790.44ZM2905.04 444.6H2993.84L2967.44 327C2963.04 307.4 2959.24 289.8 2956.04 274.2C2952.84 258.2 2950.64 246.6 2949.44 239.4C2948.24 246.6 2946.04 258.2 2942.84 274.2C2939.64 289.8 2935.84 307.2 2931.44 326.4L2905.04 444.6Z" fill="white"/>
</svg>
